<mxfile host="65bd71144e">
    <diagram id="gUwOmcsfaLEqCuUk3dTs" name="Page-1">
        <mxGraphModel dx="650" dy="610" grid="0" gridSize="10" guides="1" tooltips="1" connect="0" arrows="1" fold="1" page="0" pageScale="1" pageWidth="827" pageHeight="1169" background="none" math="0" shadow="0">
            <root>
                <mxCell id="0"/>
                <mxCell id="1" parent="0"/>
                <mxCell id="131" style="edgeStyle=orthogonalEdgeStyle;rounded=0;html=1;endArrow=none;endFill=0;strokeColor=#FFFFFF;strokeWidth=2;" parent="1" source="102" target="74" edge="1">
                    <mxGeometry relative="1" as="geometry"/>
                </mxCell>
                <mxCell id="102" value="" style="rounded=0;whiteSpace=wrap;html=1;strokeWidth=2;strokeColor=#77bc65;fillColor=none;" parent="1" vertex="1">
                    <mxGeometry x="190" y="510" width="140" height="60" as="geometry"/>
                </mxCell>
                <mxCell id="49" value="" style="edgeStyle=orthogonalEdgeStyle;html=1;endArrow=none;endFill=0;shape=link;strokeColor=#FFFFFF;strokeWidth=2;" parent="1" source="48" target="41" edge="1">
                    <mxGeometry relative="1" as="geometry">
                        <Array as="points">
                            <mxPoint x="440" y="540"/>
                        </Array>
                    </mxGeometry>
                </mxCell>
                <mxCell id="48" value="" style="rounded=0;whiteSpace=wrap;html=1;strokeWidth=2;strokeColor=#77bc65;fillColor=none;" parent="1" vertex="1">
                    <mxGeometry x="510" y="510" width="140" height="60" as="geometry"/>
                </mxCell>
                <mxCell id="189" value="" style="edgeStyle=none;html=1;endArrow=none;endFill=0;strokeColor=#FFFFFF;strokeWidth=2;" parent="1" source="2" target="183" edge="1">
                    <mxGeometry relative="1" as="geometry"/>
                </mxCell>
                <mxCell id="2" value="&lt;font color=&quot;#ffffff&quot;&gt;Motocicleta&lt;/font&gt;" style="rounded=0;whiteSpace=wrap;html=1;strokeWidth=2;strokeColor=#77bc65;fillColor=none;" parent="1" vertex="1">
                    <mxGeometry x="360" y="280" width="120" height="40" as="geometry"/>
                </mxCell>
                <mxCell id="76" value="" style="edgeStyle=orthogonalEdgeStyle;rounded=0;html=1;endArrow=none;endFill=0;strokeColor=#FFFFFF;strokeWidth=2;" parent="1" source="4" target="74" edge="1">
                    <mxGeometry relative="1" as="geometry"/>
                </mxCell>
                <mxCell id="4" value="&lt;font color=&quot;#ffffff&quot;&gt;Cliente&lt;/font&gt;" style="rounded=0;whiteSpace=wrap;html=1;strokeWidth=2;strokeColor=#77bc65;fillColor=none;" parent="1" vertex="1">
                    <mxGeometry x="40" y="280" width="120" height="40" as="geometry"/>
                </mxCell>
                <mxCell id="19" value="" style="edgeStyle=orthogonalEdgeStyle;html=1;endArrow=none;endFill=0;strokeColor=#FFFFFF;strokeWidth=2;" parent="1" source="12" target="2" edge="1">
                    <mxGeometry relative="1" as="geometry"/>
                </mxCell>
                <mxCell id="12" value="" style="swimlane;startSize=170;strokeColor=#729fcf;fillColor=none;strokeWidth=2;" parent="1" vertex="1">
                    <mxGeometry x="370" y="90" width="100" height="150" as="geometry">
                        <mxRectangle x="280" y="90" width="50" height="40" as="alternateBounds"/>
                    </mxGeometry>
                </mxCell>
                <mxCell id="13" value="&lt;font color=&quot;#ffffff&quot;&gt;Matrícula&lt;/font&gt;" style="text;html=1;strokeColor=none;fillColor=none;align=left;verticalAlign=middle;whiteSpace=wrap;rounded=0;strokeWidth=2;" parent="12" vertex="1">
                    <mxGeometry y="20" width="100" height="20" as="geometry"/>
                </mxCell>
                <mxCell id="14" value="&lt;font color=&quot;#ffffff&quot;&gt;Nº Bastidor&lt;/font&gt;" style="text;html=1;strokeColor=none;fillColor=none;align=left;verticalAlign=middle;whiteSpace=wrap;rounded=0;strokeWidth=2;" parent="12" vertex="1">
                    <mxGeometry y="40" width="100" height="20" as="geometry"/>
                </mxCell>
                <mxCell id="15" value="&lt;font color=&quot;#ffffff&quot;&gt;Marca&lt;/font&gt;" style="text;html=1;strokeColor=none;fillColor=none;align=left;verticalAlign=middle;whiteSpace=wrap;rounded=0;strokeWidth=2;" parent="12" vertex="1">
                    <mxGeometry y="60" width="100" height="20" as="geometry"/>
                </mxCell>
                <mxCell id="16" value="&lt;font color=&quot;#ffffff&quot;&gt;Modelo&lt;/font&gt;" style="text;html=1;strokeColor=none;fillColor=none;align=left;verticalAlign=middle;whiteSpace=wrap;rounded=0;strokeWidth=2;" parent="12" vertex="1">
                    <mxGeometry y="80" width="100" height="20" as="geometry"/>
                </mxCell>
                <mxCell id="17" value="&lt;font color=&quot;#ffffff&quot;&gt;Color&lt;/font&gt;" style="text;html=1;strokeColor=none;fillColor=none;align=left;verticalAlign=middle;whiteSpace=wrap;rounded=0;strokeWidth=2;" parent="12" vertex="1">
                    <mxGeometry y="100" width="100" height="20" as="geometry"/>
                </mxCell>
                <mxCell id="129" value="&lt;font color=&quot;#ffffff&quot;&gt;Fecha adquicisión&lt;/font&gt;" style="text;html=1;strokeColor=none;fillColor=none;align=left;verticalAlign=middle;whiteSpace=wrap;rounded=0;strokeWidth=2;" parent="12" vertex="1">
                    <mxGeometry y="120" width="100" height="20" as="geometry"/>
                </mxCell>
                <mxCell id="185" value="" style="edgeStyle=none;html=1;strokeColor=#FFFFFF;strokeWidth=2;endArrow=none;endFill=0;" parent="1" source="21" target="184" edge="1">
                    <mxGeometry relative="1" as="geometry"/>
                </mxCell>
                <mxCell id="188" value="" style="edgeStyle=none;html=1;endArrow=none;endFill=0;strokeColor=#FFFFFF;strokeWidth=2;" parent="1" source="21" target="183" edge="1">
                    <mxGeometry relative="1" as="geometry"/>
                </mxCell>
                <mxCell id="21" value="&lt;font color=&quot;#ffffff&quot;&gt;Garaje&lt;/font&gt;" style="rounded=0;whiteSpace=wrap;html=1;strokeWidth=2;strokeColor=#77bc65;fillColor=none;" parent="1" vertex="1">
                    <mxGeometry x="680" y="280" width="120" height="40" as="geometry"/>
                </mxCell>
                <mxCell id="31" value="" style="edgeStyle=orthogonalEdgeStyle;html=1;endArrow=none;endFill=0;rounded=0;strokeColor=#FFFFFF;strokeWidth=2;" parent="1" source="24" target="21" edge="1">
                    <mxGeometry relative="1" as="geometry"/>
                </mxCell>
                <mxCell id="24" value="" style="swimlane;startSize=150;strokeColor=#729fcf;fillColor=none;strokeWidth=2;" parent="1" vertex="1">
                    <mxGeometry x="710" y="170" width="60" height="70" as="geometry">
                        <mxRectangle x="600" y="90" width="50" height="40" as="alternateBounds"/>
                    </mxGeometry>
                </mxCell>
                <mxCell id="25" value="&lt;font color=&quot;#ffffff&quot;&gt;Nombre&lt;/font&gt;" style="text;html=1;strokeColor=none;fillColor=none;align=left;verticalAlign=middle;whiteSpace=wrap;rounded=0;strokeWidth=2;" parent="24" vertex="1">
                    <mxGeometry y="20" width="60" height="20" as="geometry"/>
                </mxCell>
                <mxCell id="26" value="&lt;font color=&quot;#ffffff&quot;&gt;Dirección&lt;/font&gt;" style="text;html=1;strokeColor=none;fillColor=none;align=left;verticalAlign=middle;whiteSpace=wrap;rounded=0;strokeWidth=2;" parent="24" vertex="1">
                    <mxGeometry y="40" width="60" height="20" as="geometry"/>
                </mxCell>
                <mxCell id="187" value="" style="edgeStyle=none;html=1;endArrow=none;endFill=0;strokeColor=#FFFFFF;strokeWidth=2;" parent="1" source="32" target="183" edge="1">
                    <mxGeometry relative="1" as="geometry"/>
                </mxCell>
                <mxCell id="32" value="" style="swimlane;startSize=150;strokeColor=#729fcf;fillColor=none;strokeWidth=2;" parent="1" vertex="1">
                    <mxGeometry x="510" y="190" width="140" height="50" as="geometry">
                        <mxRectangle x="520" y="90" width="50" height="40" as="alternateBounds"/>
                    </mxGeometry>
                </mxCell>
                <mxCell id="33" value="&lt;font color=&quot;#ffffff&quot;&gt;Fecha último guardado&lt;/font&gt;" style="text;html=1;strokeColor=none;fillColor=none;align=left;verticalAlign=middle;whiteSpace=wrap;rounded=0;strokeWidth=2;" parent="32" vertex="1">
                    <mxGeometry y="20" width="140" height="20" as="geometry"/>
                </mxCell>
                <mxCell id="43" value="" style="edgeStyle=orthogonalEdgeStyle;html=1;endArrow=none;endFill=0;strokeColor=#FFFFFF;strokeWidth=2;" parent="1" source="40" target="2" edge="1">
                    <mxGeometry relative="1" as="geometry"/>
                </mxCell>
                <mxCell id="44" value="" style="edgeStyle=orthogonalEdgeStyle;html=1;endArrow=none;endFill=0;strokeWidth=2;" parent="1" source="40" target="41" edge="1">
                    <mxGeometry relative="1" as="geometry"/>
                </mxCell>
                <mxCell id="40" value="&lt;font color=&quot;#ffffff&quot;&gt;Asignación&lt;/font&gt;" style="rhombus;whiteSpace=wrap;html=1;fillColor=none;strokeColor=#ff6d6d;strokeWidth=2;" parent="1" vertex="1">
                    <mxGeometry x="370" y="360" width="100" height="40" as="geometry"/>
                </mxCell>
                <mxCell id="45" value="" style="edgeStyle=orthogonalEdgeStyle;html=1;endArrow=none;endFill=0;strokeColor=#FFFFFF;strokeWidth=2;" parent="1" source="41" target="40" edge="1">
                    <mxGeometry relative="1" as="geometry"/>
                </mxCell>
                <mxCell id="71" style="edgeStyle=orthogonalEdgeStyle;rounded=0;html=1;entryX=0;entryY=0.5;entryDx=0;entryDy=0;endArrow=none;endFill=0;strokeColor=#FFFFFF;strokeWidth=2;" parent="1" source="41" target="69" edge="1">
                    <mxGeometry relative="1" as="geometry"/>
                </mxCell>
                <mxCell id="41" value="&lt;font color=&quot;#ffffff&quot;&gt;Agencia&lt;/font&gt;" style="rounded=0;whiteSpace=wrap;html=1;strokeWidth=2;strokeColor=#77bc65;fillColor=none;" parent="1" vertex="1">
                    <mxGeometry x="360" y="440" width="120" height="40" as="geometry"/>
                </mxCell>
                <mxCell id="46" value="&lt;font color=&quot;#ffffff&quot;&gt;Teléfono&lt;/font&gt;" style="rounded=0;whiteSpace=wrap;html=1;strokeWidth=2;strokeColor=#77bc65;fillColor=none;" parent="1" vertex="1">
                    <mxGeometry x="520" y="520" width="120" height="40" as="geometry"/>
                </mxCell>
                <mxCell id="58" value="" style="edgeStyle=orthogonalEdgeStyle;rounded=0;html=1;endArrow=none;endFill=0;strokeColor=#FFFFFF;entryX=0.5;entryY=1;entryDx=0;entryDy=0;strokeWidth=2;" parent="1" source="51" target="41" edge="1">
                    <mxGeometry relative="1" as="geometry">
                        <Array as="points">
                            <mxPoint x="420" y="530"/>
                            <mxPoint x="420" y="530"/>
                        </Array>
                    </mxGeometry>
                </mxCell>
                <mxCell id="51" value="" style="swimlane;startSize=150;strokeColor=#729fcf;fillColor=none;strokeWidth=2;" parent="1" vertex="1">
                    <mxGeometry x="390" y="580" width="60" height="70" as="geometry">
                        <mxRectangle x="280" y="560" width="50" height="40" as="alternateBounds"/>
                    </mxGeometry>
                </mxCell>
                <mxCell id="52" value="&lt;font color=&quot;#ffffff&quot;&gt;Nombre&lt;/font&gt;" style="text;html=1;strokeColor=none;fillColor=none;align=left;verticalAlign=middle;whiteSpace=wrap;rounded=0;strokeWidth=2;" parent="51" vertex="1">
                    <mxGeometry y="20" width="120" height="20" as="geometry"/>
                </mxCell>
                <mxCell id="53" value="&lt;font color=&quot;#ffffff&quot;&gt;Dirección&lt;/font&gt;" style="text;html=1;strokeColor=none;fillColor=none;align=left;verticalAlign=middle;whiteSpace=wrap;rounded=0;strokeWidth=2;" parent="51" vertex="1">
                    <mxGeometry y="40" width="120" height="20" as="geometry"/>
                </mxCell>
                <mxCell id="67" style="edgeStyle=orthogonalEdgeStyle;rounded=0;html=1;entryX=0.5;entryY=1;entryDx=0;entryDy=0;endArrow=none;endFill=0;strokeColor=#FFFFFF;strokeWidth=2;" parent="1" source="59" target="48" edge="1">
                    <mxGeometry relative="1" as="geometry"/>
                </mxCell>
                <mxCell id="59" value="" style="swimlane;startSize=150;strokeColor=#729fcf;fillColor=none;strokeWidth=2;" parent="1" vertex="1">
                    <mxGeometry x="550" y="610" width="60" height="45" as="geometry">
                        <mxRectangle x="515" y="565" width="50" height="40" as="alternateBounds"/>
                    </mxGeometry>
                </mxCell>
                <mxCell id="60" value="&lt;font color=&quot;#ffffff&quot;&gt;Teléfono&lt;/font&gt;" style="text;html=1;strokeColor=none;fillColor=none;align=left;verticalAlign=middle;whiteSpace=wrap;rounded=0;strokeWidth=2;" parent="59" vertex="1">
                    <mxGeometry y="20" width="60" height="20" as="geometry"/>
                </mxCell>
                <mxCell id="125" value="" style="edgeStyle=orthogonalEdgeStyle;rounded=0;html=1;endArrow=none;endFill=0;strokeColor=#FFFFFF;strokeWidth=2;" parent="1" source="69" target="73" edge="1">
                    <mxGeometry relative="1" as="geometry"/>
                </mxCell>
                <mxCell id="69" value="&lt;font color=&quot;#ffffff&quot;&gt;ubicación&lt;/font&gt;" style="rhombus;whiteSpace=wrap;html=1;fillColor=none;strokeColor=#ff6d6d;strokeWidth=2;" parent="1" vertex="1">
                    <mxGeometry x="530" y="440" width="100" height="40" as="geometry"/>
                </mxCell>
                <mxCell id="124" style="edgeStyle=orthogonalEdgeStyle;rounded=0;html=1;entryX=0.5;entryY=0;entryDx=0;entryDy=0;endArrow=none;endFill=0;strokeColor=#FFFFFF;strokeWidth=2;" parent="1" source="73" target="114" edge="1">
                    <mxGeometry relative="1" as="geometry"/>
                </mxCell>
                <mxCell id="73" value="&lt;font color=&quot;#ffffff&quot;&gt;Ciudad&lt;/font&gt;" style="rounded=0;whiteSpace=wrap;html=1;strokeWidth=2;strokeColor=#77bc65;fillColor=none;" parent="1" vertex="1">
                    <mxGeometry x="680" y="440" width="120" height="40" as="geometry"/>
                </mxCell>
                <mxCell id="75" value="" style="edgeStyle=orthogonalEdgeStyle;rounded=0;html=1;endArrow=none;endFill=0;strokeColor=#FFFFFF;strokeWidth=2;" parent="1" source="74" target="2" edge="1">
                    <mxGeometry relative="1" as="geometry"/>
                </mxCell>
                <mxCell id="74" value="&lt;font color=&quot;#ffffff&quot;&gt;Reserva&lt;/font&gt;" style="rhombus;whiteSpace=wrap;html=1;fillColor=none;strokeColor=#ff6d6d;strokeWidth=2;" parent="1" vertex="1">
                    <mxGeometry x="210" y="280" width="100" height="40" as="geometry"/>
                </mxCell>
                <mxCell id="84" value="" style="edgeStyle=orthogonalEdgeStyle;rounded=0;html=1;endArrow=none;endFill=0;strokeColor=#FFFFFF;strokeWidth=2;" parent="1" source="77" target="4" edge="1">
                    <mxGeometry relative="1" as="geometry"/>
                </mxCell>
                <mxCell id="77" value="" style="swimlane;startSize=200;strokeColor=#729fcf;fillColor=none;strokeWidth=2;" parent="1" vertex="1">
                    <mxGeometry x="60" y="50" width="80" height="190" as="geometry"/>
                </mxCell>
                <mxCell id="78" value="&lt;font color=&quot;#ffffff&quot;&gt;ID&lt;/font&gt;" style="text;html=1;strokeColor=none;fillColor=none;align=left;verticalAlign=middle;whiteSpace=wrap;rounded=0;strokeWidth=2;" parent="77" vertex="1">
                    <mxGeometry y="20" width="60" height="20" as="geometry"/>
                </mxCell>
                <mxCell id="79" value="&lt;font color=&quot;#ffffff&quot;&gt;Nombre&lt;/font&gt;" style="text;html=1;strokeColor=none;fillColor=none;align=left;verticalAlign=middle;whiteSpace=wrap;rounded=0;strokeWidth=2;" parent="77" vertex="1">
                    <mxGeometry y="40" width="60" height="20" as="geometry"/>
                </mxCell>
                <mxCell id="80" value="&lt;font color=&quot;#ffffff&quot;&gt;Apellidos&lt;/font&gt;" style="text;html=1;strokeColor=none;fillColor=none;align=left;verticalAlign=middle;whiteSpace=wrap;rounded=0;strokeWidth=2;" parent="77" vertex="1">
                    <mxGeometry y="60" width="60" height="20" as="geometry"/>
                </mxCell>
                <mxCell id="81" value="&lt;font color=&quot;#ffffff&quot;&gt;DNI&lt;/font&gt;" style="text;html=1;strokeColor=none;fillColor=none;align=left;verticalAlign=middle;whiteSpace=wrap;rounded=0;strokeWidth=2;" parent="77" vertex="1">
                    <mxGeometry y="80" width="60" height="20" as="geometry"/>
                </mxCell>
                <mxCell id="82" value="&lt;font color=&quot;#ffffff&quot;&gt;Dirección&lt;/font&gt;" style="text;html=1;strokeColor=none;fillColor=none;align=left;verticalAlign=middle;whiteSpace=wrap;rounded=0;strokeWidth=2;" parent="77" vertex="1">
                    <mxGeometry y="120" width="60" height="20" as="geometry"/>
                </mxCell>
                <mxCell id="83" value="&lt;font color=&quot;#ffffff&quot;&gt;Teléfono&lt;/font&gt;" style="text;html=1;strokeColor=none;fillColor=none;align=left;verticalAlign=middle;whiteSpace=wrap;rounded=0;strokeWidth=2;" parent="77" vertex="1">
                    <mxGeometry y="140" width="60" height="20" as="geometry"/>
                </mxCell>
                <mxCell id="130" value="&lt;font color=&quot;#ffffff&quot;&gt;Fecha nac.&lt;/font&gt;" style="text;html=1;strokeColor=none;fillColor=none;align=left;verticalAlign=middle;whiteSpace=wrap;rounded=0;strokeWidth=2;" parent="77" vertex="1">
                    <mxGeometry y="100" width="80" height="20" as="geometry"/>
                </mxCell>
                <mxCell id="134" value="&lt;font color=&quot;#ffffff&quot;&gt;Fecha registro&lt;/font&gt;" style="text;html=1;strokeColor=none;fillColor=none;align=left;verticalAlign=middle;whiteSpace=wrap;rounded=0;strokeWidth=2;" parent="77" vertex="1">
                    <mxGeometry y="160" width="80" height="20" as="geometry"/>
                </mxCell>
                <mxCell id="94" value="" style="edgeStyle=orthogonalEdgeStyle;rounded=0;html=1;endArrow=none;endFill=0;strokeColor=#FFFFFF;strokeWidth=2;" parent="1" source="87" target="74" edge="1">
                    <mxGeometry relative="1" as="geometry"/>
                </mxCell>
                <mxCell id="87" value="" style="swimlane;startSize=180;strokeColor=#729fcf;fillColor=none;strokeWidth=2;" parent="1" vertex="1">
                    <mxGeometry x="215" y="70" width="90" height="170" as="geometry"/>
                </mxCell>
                <mxCell id="88" value="&lt;font color=&quot;#ffffff&quot;&gt;ID reserva&lt;/font&gt;" style="text;html=1;strokeColor=none;fillColor=none;align=left;verticalAlign=middle;whiteSpace=wrap;rounded=0;strokeWidth=2;" parent="87" vertex="1">
                    <mxGeometry y="20" width="90" height="20" as="geometry"/>
                </mxCell>
                <mxCell id="89" value="&lt;font color=&quot;#ffffff&quot;&gt;Encargado&lt;/font&gt;" style="text;html=1;strokeColor=none;fillColor=none;align=left;verticalAlign=middle;whiteSpace=wrap;rounded=0;strokeWidth=2;" parent="87" vertex="1">
                    <mxGeometry y="40" width="90" height="20" as="geometry"/>
                </mxCell>
                <mxCell id="91" value="&lt;font color=&quot;#ffffff&quot;&gt;Modelo&lt;/font&gt;" style="text;html=1;strokeColor=none;fillColor=none;align=left;verticalAlign=middle;whiteSpace=wrap;rounded=0;strokeWidth=2;" parent="87" vertex="1">
                    <mxGeometry y="60" width="90" height="20" as="geometry"/>
                </mxCell>
                <mxCell id="92" value="&lt;font color=&quot;#ffffff&quot;&gt;Precio&lt;/font&gt;" style="text;html=1;strokeColor=none;fillColor=none;align=left;verticalAlign=middle;whiteSpace=wrap;rounded=0;strokeWidth=2;" parent="87" vertex="1">
                    <mxGeometry y="80" width="90" height="20" as="geometry"/>
                </mxCell>
                <mxCell id="93" value="&lt;font color=&quot;#ffffff&quot;&gt;Fecha inicio&lt;/font&gt;" style="text;html=1;strokeColor=none;fillColor=none;align=left;verticalAlign=middle;whiteSpace=wrap;rounded=0;strokeWidth=2;" parent="87" vertex="1">
                    <mxGeometry y="120" width="90" height="20" as="geometry"/>
                </mxCell>
                <mxCell id="96" value="&lt;font color=&quot;#ffffff&quot;&gt;Fecha reserva&lt;/font&gt;" style="text;html=1;strokeColor=none;fillColor=none;align=left;verticalAlign=middle;whiteSpace=wrap;rounded=0;strokeWidth=2;" parent="87" vertex="1">
                    <mxGeometry y="100" width="90" height="20" as="geometry"/>
                </mxCell>
                <mxCell id="97" value="&lt;font color=&quot;#ffffff&quot;&gt;Fecha fin&lt;/font&gt;" style="text;html=1;strokeColor=none;fillColor=none;align=left;verticalAlign=middle;whiteSpace=wrap;rounded=0;strokeWidth=2;" parent="87" vertex="1">
                    <mxGeometry y="140" width="90" height="20" as="geometry"/>
                </mxCell>
                <mxCell id="100" value="&lt;font color=&quot;#ffffff&quot;&gt;Agentes&lt;/font&gt;" style="rounded=0;whiteSpace=wrap;html=1;strokeWidth=2;strokeColor=#77bc65;fillColor=none;" parent="1" vertex="1">
                    <mxGeometry x="200" y="520" width="120" height="40" as="geometry"/>
                </mxCell>
                <mxCell id="104" value="" style="edgeStyle=orthogonalEdgeStyle;html=1;endArrow=none;endFill=0;shape=link;entryX=1;entryY=0.5;entryDx=0;entryDy=0;strokeColor=#FFFFFF;strokeWidth=2;" parent="1" target="102" edge="1">
                    <mxGeometry relative="1" as="geometry">
                        <mxPoint x="400" y="480" as="sourcePoint"/>
                        <mxPoint x="369.9973684210526" y="530" as="targetPoint"/>
                        <Array as="points">
                            <mxPoint x="400" y="480"/>
                            <mxPoint x="400" y="540"/>
                        </Array>
                    </mxGeometry>
                </mxCell>
                <mxCell id="112" value="" style="edgeStyle=orthogonalEdgeStyle;rounded=0;html=1;endArrow=none;endFill=0;strokeColor=#FFFFFF;entryX=0.5;entryY=1;entryDx=0;entryDy=0;strokeWidth=2;" parent="1" source="105" target="102" edge="1">
                    <mxGeometry relative="1" as="geometry"/>
                </mxCell>
                <mxCell id="105" value="" style="swimlane;startSize=200;strokeColor=#729fcf;fillColor=none;strokeWidth=2;" parent="1" vertex="1">
                    <mxGeometry x="230" y="610" width="60" height="170" as="geometry"/>
                </mxCell>
                <mxCell id="106" value="&lt;font color=&quot;#ffffff&quot;&gt;ID&lt;/font&gt;" style="text;html=1;strokeColor=none;fillColor=none;align=left;verticalAlign=middle;whiteSpace=wrap;rounded=0;strokeWidth=2;" parent="105" vertex="1">
                    <mxGeometry y="20" width="60" height="20" as="geometry"/>
                </mxCell>
                <mxCell id="107" value="&lt;font color=&quot;#ffffff&quot;&gt;Nombre&lt;/font&gt;" style="text;html=1;strokeColor=none;fillColor=none;align=left;verticalAlign=middle;whiteSpace=wrap;rounded=0;strokeWidth=2;" parent="105" vertex="1">
                    <mxGeometry y="40" width="60" height="20" as="geometry"/>
                </mxCell>
                <mxCell id="108" value="&lt;font color=&quot;#ffffff&quot;&gt;Apellidos&lt;/font&gt;" style="text;html=1;strokeColor=none;fillColor=none;align=left;verticalAlign=middle;whiteSpace=wrap;rounded=0;strokeWidth=2;" parent="105" vertex="1">
                    <mxGeometry y="60" width="60" height="20" as="geometry"/>
                </mxCell>
                <mxCell id="109" value="&lt;font color=&quot;#ffffff&quot;&gt;DNI&lt;/font&gt;" style="text;html=1;strokeColor=none;fillColor=none;align=left;verticalAlign=middle;whiteSpace=wrap;rounded=0;strokeWidth=2;" parent="105" vertex="1">
                    <mxGeometry y="80" width="60" height="20" as="geometry"/>
                </mxCell>
                <mxCell id="110" value="&lt;font color=&quot;#ffffff&quot;&gt;Dirección&lt;/font&gt;" style="text;html=1;strokeColor=none;fillColor=none;align=left;verticalAlign=middle;whiteSpace=wrap;rounded=0;strokeWidth=2;" parent="105" vertex="1">
                    <mxGeometry y="100" width="60" height="20" as="geometry"/>
                </mxCell>
                <mxCell id="111" value="&lt;font color=&quot;#ffffff&quot;&gt;Teléfono&lt;/font&gt;" style="text;html=1;strokeColor=none;fillColor=none;align=left;verticalAlign=middle;whiteSpace=wrap;rounded=0;strokeWidth=2;" parent="105" vertex="1">
                    <mxGeometry y="120" width="60" height="20" as="geometry"/>
                </mxCell>
                <mxCell id="113" value="&lt;font color=&quot;#ffffff&quot;&gt;IBAN&lt;/font&gt;" style="text;html=1;strokeColor=none;fillColor=none;align=left;verticalAlign=middle;whiteSpace=wrap;rounded=0;strokeWidth=2;" parent="105" vertex="1">
                    <mxGeometry y="140" width="60" height="20" as="geometry"/>
                </mxCell>
                <mxCell id="114" value="" style="swimlane;startSize=150;strokeColor=#729fcf;fillColor=none;strokeWidth=2;" parent="1" vertex="1">
                    <mxGeometry x="705" y="520" width="70" height="110" as="geometry"/>
                </mxCell>
                <mxCell id="115" value="&lt;font color=&quot;#ffffff&quot;&gt;Nombre&lt;/font&gt;" style="text;html=1;strokeColor=none;fillColor=none;align=left;verticalAlign=middle;whiteSpace=wrap;rounded=0;strokeWidth=2;" parent="114" vertex="1">
                    <mxGeometry y="20" width="70" height="20" as="geometry"/>
                </mxCell>
                <mxCell id="116" value="&lt;font color=&quot;#ffffff&quot;&gt;Cód. postal&lt;/font&gt;" style="text;html=1;strokeColor=none;fillColor=none;align=left;verticalAlign=middle;whiteSpace=wrap;rounded=0;strokeWidth=2;" parent="114" vertex="1">
                    <mxGeometry y="40" width="70" height="20" as="geometry"/>
                </mxCell>
                <mxCell id="117" value="&lt;font color=&quot;#ffffff&quot;&gt;Provincia&lt;/font&gt;" style="text;html=1;strokeColor=none;fillColor=none;align=left;verticalAlign=middle;whiteSpace=wrap;rounded=0;strokeWidth=2;" parent="114" vertex="1">
                    <mxGeometry y="60" width="70" height="20" as="geometry"/>
                </mxCell>
                <mxCell id="118" value="Población" style="text;html=1;strokeColor=none;fillColor=none;align=left;verticalAlign=middle;whiteSpace=wrap;rounded=0;strokeWidth=2;" parent="114" vertex="1">
                    <mxGeometry y="80" width="70" height="20" as="geometry"/>
                </mxCell>
                <mxCell id="183" value="&lt;font color=&quot;#ffffff&quot;&gt;Guardado&lt;/font&gt;" style="rhombus;whiteSpace=wrap;html=1;fillColor=none;strokeColor=#ff6d6d;strokeWidth=2;" parent="1" vertex="1">
                    <mxGeometry x="530" y="280" width="100" height="40" as="geometry"/>
                </mxCell>
                <mxCell id="186" value="" style="edgeStyle=none;html=1;endArrow=none;endFill=0;strokeColor=#FFFFFF;strokeWidth=2;" parent="1" source="184" target="73" edge="1">
                    <mxGeometry relative="1" as="geometry"/>
                </mxCell>
                <mxCell id="184" value="&lt;font color=&quot;#ffffff&quot;&gt;ubicación&lt;/font&gt;" style="rhombus;whiteSpace=wrap;html=1;fillColor=none;strokeColor=#ff6d6d;strokeWidth=2;" parent="1" vertex="1">
                    <mxGeometry x="690" y="360" width="100" height="40" as="geometry"/>
                </mxCell>
            </root>
        </mxGraphModel>
    </diagram>
</mxfile>